<svg width="42" height="42" viewBox="0 0 42 42" fill="none" xmlns="http://www.w3.org/2000/svg">
<path d="M6.24524 6.39136C5.86342 11.4208 6.93192 16.5259 9.33333 21.0001C6.93161 25.4779 5.87081 30.577 6.24524 35.6088C6.23649 35.608 6.22722 35.6072 6.21797 35.6065C2.37568 31.866 0 26.703 0 21.0001C0 15.2974 2.37568 10.1344 6.21797 6.3929C6.22722 6.39217 6.23598 6.39209 6.24524 6.39136Z" fill="#2E3C7B"/>
<path d="M15.8667 41.2661C20.5547 39.0459 24.5827 35.5516 27.3782 31.2416C32.5843 31.0213 37.6801 29.3463 41.988 26.4783C41.992 26.4864 41.9958 26.4945 42 26.5029C40.5827 31.6694 37.1587 36.3064 32.0598 39.1925C26.9612 42.0789 21.1539 42.6681 15.8815 41.2884C15.8765 41.281 15.8722 41.274 15.8667 41.2661Z" fill="#2E3C7B"/>
<path d="M41.9872 15.5217C37.6807 12.6525 32.5839 10.9773 27.3782 10.7589C24.5804 6.44746 20.5534 2.9595 15.8667 0.734154C15.872 0.726524 15.8772 0.719429 15.8825 0.711798C21.1542 -0.668148 26.9615 -0.0791848 32.06 2.80772C37.1584 5.69389 40.5822 10.331 42 15.4978C41.9958 15.5059 41.9915 15.5131 41.9872 15.5217Z" fill="#2E3C7B"/>
</svg>
