<svg width="33" height="34" viewBox="0 0 33 34" fill="none" xmlns="http://www.w3.org/2000/svg">
<path d="M4.90698 5.1333C4.60697 9.17283 5.44651 13.2731 7.33333 16.8666C5.44626 20.4631 4.61278 24.5586 4.90698 28.6C4.9001 28.5994 4.89282 28.5988 4.88554 28.5982C1.86661 25.5939 0 21.4471 0 16.8666C0 12.2864 1.86661 8.13959 4.88554 5.13454C4.89282 5.13395 4.8997 5.13389 4.90698 5.1333Z" fill="#536FEE"/>
<path d="M12.4666 33.1438C16.1499 31.3606 19.3148 28.5541 21.5113 25.0924C25.6018 24.9155 29.6057 23.5701 32.9904 21.2666C32.9936 21.2731 32.9965 21.2797 32.9999 21.2864C31.8862 25.436 29.196 29.1603 25.1897 31.4784C21.1837 33.7966 16.6208 34.2699 12.4782 33.1618C12.4742 33.1558 12.4709 33.1501 12.4666 33.1438Z" fill="#FFB800"/>
<path d="M32.9898 12.4667C29.6061 10.1622 25.6015 8.81672 21.5113 8.64124C19.313 5.17843 16.149 2.377 12.4666 0.589654C12.4707 0.583525 12.4748 0.577828 12.479 0.571699C16.621 -0.53664 21.1839 -0.0635992 25.1898 2.25509C29.1957 4.57319 31.8859 8.29762 32.9999 12.4475C32.9965 12.454 32.9932 12.4598 32.9898 12.4667Z" fill="#F8316D"/>
</svg>
